<svg width="239" height="289" viewBox="0 0 239 289" fill="none" xmlns="http://www.w3.org/2000/svg">
<rect x="88" y="50.8829" width="60" height="140" transform="rotate(-58 88 50.8829)" fill="#A6B7C8"/>
<rect x="179" y="74" width="60" height="140" fill="#E3E80E"/>
<rect x="206.727" y="163" width="60" height="140" transform="rotate(58 206.727 163)" fill="#FF9B03"/>
<rect y="213.883" width="60" height="140" transform="rotate(-58 0 213.883)" fill="#7DCF32"/>
<rect y="74" width="60" height="140" fill="#33A9E9"/>
<rect x="118.727" width="60" height="140" transform="rotate(58 118.727 0)" fill="#EF0365"/>
<path d="M107.767 188C102.762 188 98.6896 184.169 98.6896 179.46C98.6896 178.036 99.9165 176.882 101.43 176.882C102.943 176.882 104.17 178.036 104.17 179.46C104.17 181.326 105.784 182.844 107.767 182.844C109.75 182.844 111.364 181.326 111.364 179.46V163.712C111.364 162.288 112.591 161.134 114.104 161.134C115.618 161.134 116.845 162.288 116.845 163.712V179.46C116.845 184.169 112.773 188 107.767 188Z" fill="#FF7B94"/>
<path d="M131.403 188C126.398 188 122.326 184.169 122.326 179.46V163.712C122.326 162.288 123.553 161.134 125.066 161.134C126.58 161.134 127.807 162.288 127.807 163.712V179.46C127.807 181.326 129.42 182.844 131.403 182.844C133.387 182.844 135 181.326 135 179.46C135 178.036 136.227 176.882 137.74 176.882C139.254 176.882 140.481 178.036 140.481 179.46C140.481 184.169 136.409 188 131.403 188Z" fill="#FE4566"/>
<path d="M151.813 156.769C150.35 156.769 148.867 156.436 147.494 155.734L135.056 149.369C133.727 148.689 133.235 147.123 133.958 145.872C134.681 144.621 136.345 144.159 137.675 144.839L150.112 151.204C152.51 152.43 155.429 150.777 155.429 148.237C155.429 146.993 154.709 145.851 153.549 145.258C152.219 144.578 151.727 143.012 152.45 141.761C153.173 140.511 154.836 140.048 156.166 140.728C159.092 142.224 160.91 145.102 160.91 148.237C160.91 152.905 156.882 156.769 151.813 156.769V156.769Z" fill="#FE4566"/>
<path d="M142.222 174.626C138.205 174.626 134.523 172.096 133.446 168.276C133.442 168.262 133.439 168.248 133.435 168.234L130.627 157.553C130.263 156.171 131.16 154.773 132.629 154.431C134.098 154.089 135.584 154.933 135.947 156.315L138.749 166.972C139.265 168.764 141.232 169.832 143.142 169.356C144.07 169.124 144.847 168.566 145.329 167.785C145.812 167.003 145.942 166.092 145.696 165.219C145.308 163.843 146.179 162.431 147.642 162.066C149.106 161.701 150.606 162.521 150.994 163.897C151.615 166.101 151.286 168.402 150.069 170.374C148.369 173.128 145.318 174.626 142.222 174.626V174.626Z" fill="#FE4566"/>
<path d="M87.0965 156.769C83.8747 156.769 80.7498 155.155 79.1044 152.31C78.3816 151.06 78 149.652 78 148.237C78 145.102 79.8176 142.224 82.7435 140.728C84.0731 140.048 85.7373 140.511 86.46 141.761C87.1829 143.012 86.6911 144.578 85.3613 145.258C83.6376 146.14 82.9573 148.183 83.9188 149.846C84.8667 151.485 87.0561 152.094 88.7979 151.204L101.496 144.705C102.825 144.025 104.49 144.487 105.213 145.738C105.936 146.989 105.445 148.554 104.115 149.235L91.4164 155.733C90.0433 156.436 88.5596 156.769 87.0965 156.769V156.769Z" fill="#FF7B94"/>
<path d="M96.9496 174.626C93.8749 174.626 90.8133 173.145 89.1027 170.374C87.8851 168.402 87.5566 166.102 88.1778 163.897C88.5656 162.521 90.0661 161.702 91.529 162.066C92.9918 162.431 93.8632 163.843 93.4754 165.219C93.2293 166.092 93.3596 167.003 93.8421 167.785C94.3247 168.566 95.1013 169.124 96.029 169.356C97.9398 169.833 99.9064 168.764 100.423 166.972L103.224 156.315C103.588 154.933 105.073 154.09 106.542 154.432C108.012 154.773 108.908 156.171 108.545 157.553L105.737 168.234C105.733 168.248 105.729 168.262 105.725 168.276C104.648 172.096 100.966 174.626 96.9496 174.626V174.626Z" fill="#FF7B94"/>
<path d="M144.456 133.775C144.456 139.04 140.746 143.381 138.976 145.155V147.819C138.976 157.946 130.218 166.184 119.455 166.184C108.697 166.184 99.935 157.949 99.935 147.819V145.155C98.1629 143.381 94.4543 139.04 94.4543 133.775C94.4543 128.511 98.1629 124.167 99.935 122.395V118.562C99.935 108.405 108.624 100.077 119.302 100C119.353 100 119.404 100 119.455 100.002C124.845 100.036 129.596 101.961 133.205 105.33C136.926 108.803 138.976 113.434 138.976 118.365V122.395C140.746 124.167 144.456 128.511 144.456 133.775V133.775Z" fill="#FFA1B2"/>
<path d="M144.456 133.775C144.456 139.04 140.746 143.381 138.975 145.155V147.819C138.975 157.946 130.217 166.184 119.455 166.184V100.002C124.844 100.036 129.596 101.961 133.204 105.33C136.926 108.803 138.975 113.434 138.975 118.365V122.395C140.746 124.167 144.456 128.511 144.456 133.775V133.775Z" fill="#FF7B94"/>
<path d="M108.156 136.353C109.669 136.353 110.896 135.198 110.896 133.775C110.896 132.351 109.669 131.197 108.156 131.197C106.643 131.197 105.416 132.351 105.416 133.775C105.416 135.198 106.643 136.353 108.156 136.353Z" fill="#525E63"/>
<path d="M130.755 136.353C132.268 136.353 133.495 135.198 133.495 133.775C133.495 132.351 132.268 131.197 130.755 131.197C129.241 131.197 128.014 132.351 128.014 133.775C128.014 135.198 129.241 136.353 130.755 136.353Z" fill="#414C51"/>
</svg>
