<svg width="32" height="32" viewBox="0 0 32 32" fill="none" xmlns="http://www.w3.org/2000/svg">
<path d="M29.6578 28.0085L21.6954 20.046C23.2378 18.1409 24.1664 15.72 24.1664 13.0834C24.1664 6.97235 19.1941 2 13.0832 2C6.97224 2 2 6.9723 2 13.0833C2 19.1943 6.9723 24.1666 13.0832 24.1666C15.7198 24.1666 18.1407 23.238 20.0458 21.6957L28.0082 29.6581C28.2357 29.8857 28.5344 30 28.8331 30C29.1318 30 29.4304 29.8857 29.6579 29.6581C30.114 29.202 30.114 28.4646 29.6578 28.0085ZM13.0832 21.8333C8.25793 21.8333 4.33333 17.9086 4.33333 13.0833C4.33333 8.25795 8.25793 4.3333 13.0832 4.3333C17.9085 4.3333 21.8331 8.25795 21.8331 13.0833C21.8331 17.9086 17.9085 21.8333 13.0832 21.8333Z" fill="white"/>
</svg>
