<svg width="33" height="36" viewBox="0 0 33 36" fill="none" xmlns="http://www.w3.org/2000/svg">
<path d="M11.848 36C9.85573 36 8.23492 34.4327 8.23492 32.5063C8.23492 31.9239 8.72327 31.4516 9.32564 31.4516C9.92801 31.4516 10.4164 31.9239 10.4164 32.5063C10.4164 33.2696 11.0586 33.8906 11.848 33.8906C12.6373 33.8906 13.2796 33.2696 13.2796 32.5063V26.0641C13.2796 25.4816 13.7679 25.0094 14.3703 25.0094C14.9726 25.0094 15.461 25.4816 15.461 26.0641V32.5063C15.4611 34.4327 13.8403 36 11.848 36Z" fill="#1690E8"/>
<path d="M21.2557 36C19.2635 36 17.6427 34.4327 17.6427 32.5063V26.0641C17.6427 25.4816 18.131 25.0094 18.7334 25.0094C19.3358 25.0094 19.8241 25.4816 19.8241 26.0641V32.5063C19.8241 33.2696 20.4663 33.8906 21.2557 33.8906C22.0451 33.8906 22.6873 33.2696 22.6873 32.5063C22.6873 31.9239 23.1757 31.4516 23.778 31.4516C24.3804 31.4516 24.8687 31.9239 24.8687 32.5063C24.8688 34.4327 23.248 36 21.2557 36Z" fill="#1690E8"/>
<path d="M29.3792 23.2237C28.7968 23.2237 28.2067 23.0874 27.6601 22.8001L22.7097 20.1964C22.1805 19.9181 21.9848 19.2777 22.2726 18.7659C22.5604 18.2542 23.2227 18.0649 23.7519 18.3434L28.7023 20.947C29.6568 21.4488 30.8185 20.7724 30.8185 19.7332C30.8185 19.2243 30.5318 18.7574 30.07 18.5146C29.5408 18.2364 29.345 17.596 29.6326 17.0843C29.9204 16.5725 30.5825 16.3831 31.1119 16.6613C32.2765 17.2736 33 18.4507 33 19.7332C33 21.6429 31.3969 23.2236 29.3792 23.2237Z" fill="#1690E8"/>
<path d="M25.5617 30.5289C23.9629 30.5289 22.4975 29.4939 22.0688 27.931C22.0673 27.9253 22.0658 27.9196 22.0643 27.9139L20.9466 23.5444C20.802 22.979 21.1588 22.4072 21.7436 22.2674C22.3284 22.1274 22.9197 22.4725 23.0643 23.0379L24.1795 27.3976C24.3849 28.1306 25.1676 28.5678 25.9281 28.3728C26.2973 28.2781 26.6064 28.0499 26.7985 27.7301C26.9907 27.4103 27.0424 27.0376 26.9445 26.6805C26.7901 26.1175 27.1369 25.5401 27.7191 25.3907C28.3019 25.2414 28.8986 25.5768 29.0531 26.1397C29.3004 27.0414 29.1696 27.9825 28.6849 28.7895C28.0083 29.9162 26.794 30.5289 25.5617 30.5289Z" fill="#1690E8"/>
<path d="M3.6206 23.2237C2.33828 23.2237 1.0945 22.5632 0.439559 21.3997C0.151901 20.8882 0 20.3121 0 19.7332C0 18.4506 0.723436 17.2736 1.88803 16.6614C2.41725 16.3832 3.0796 16.5725 3.36726 17.0843C3.65499 17.596 3.45924 18.2364 2.92996 18.5146C2.24389 18.8753 1.97311 19.7113 2.3558 20.3917C2.73312 21.0622 3.60453 21.3114 4.29779 20.9469L9.35202 18.2885C9.88102 18.0101 10.5434 18.1993 10.8313 18.711C11.1191 19.2227 10.9235 19.8631 10.3944 20.1414L5.34 22.8C4.79348 23.0873 4.20297 23.2237 3.6206 23.2237Z" fill="#1690E8"/>
<path d="M7.54235 30.5289C6.31857 30.5289 5.09995 29.9231 4.41912 28.7894C3.93448 27.9825 3.80374 27.0416 4.05097 26.1399C4.20534 25.5768 4.80255 25.2416 5.38484 25.3907C5.96707 25.5401 6.31391 26.1175 6.15954 26.6806C6.0616 27.0377 6.11344 27.4104 6.30548 27.7301C6.49759 28.0499 6.8067 28.2781 7.17594 28.3729C7.93646 28.568 8.71923 28.1307 8.92465 27.3976L10.0398 23.038C10.1844 22.4726 10.7758 22.1277 11.3605 22.2675C11.9453 22.4073 12.3021 22.9791 12.1574 23.5446L11.0398 27.914C11.0383 27.9197 11.0368 27.9254 11.0352 27.9311C10.6065 29.4938 9.14097 30.5288 7.54235 30.5289Z" fill="#1690E8"/>
<path d="M26.4511 13.8171C26.4511 15.9708 24.9743 17.7469 24.2697 18.4725V19.5623C24.2697 23.7052 20.7837 27.0752 16.5001 27.0752C12.218 27.0752 8.73057 23.7066 8.73057 19.5623V18.4725C8.02524 17.7469 6.54913 15.9708 6.54913 13.8171C6.54913 11.6634 8.02524 9.88664 8.73057 9.16172V7.59375C8.73057 3.43828 12.1889 0.0316406 16.439 0C16.4594 0 16.4798 0 16.5001 0.000703125C18.6452 0.0147656 20.5365 0.802265 21.9726 2.18039C23.4538 3.60141 24.2697 5.49562 24.2697 7.51289V9.16172C24.9743 9.88664 26.4511 11.6634 26.4511 13.8171Z" fill="#1690E8"/>
<path d="M26.451 13.8172C26.451 15.9709 24.9741 17.747 24.2695 18.4726V19.5624C24.2695 23.7052 20.7836 27.0753 16.5 27.0753V0.000793457C18.6451 0.014856 20.5364 0.802356 21.9725 2.18048C23.4537 3.6015 24.2695 5.49571 24.2695 7.51298V9.16181C24.9741 9.88673 26.451 11.6635 26.451 13.8172Z" fill="#1690E8"/>
<path d="M12.0028 14.8716C12.6052 14.8716 13.0935 14.3994 13.0935 13.8169C13.0935 13.2344 12.6052 12.7622 12.0028 12.7622C11.4004 12.7622 10.912 13.2344 10.912 13.8169C10.912 14.3994 11.4004 14.8716 12.0028 14.8716Z" fill="#1690E8"/>
<path d="M20.9976 14.8716C21.6 14.8716 22.0883 14.3994 22.0883 13.8169C22.0883 13.2344 21.6 12.7622 20.9976 12.7622C20.3952 12.7622 19.9069 13.2344 19.9069 13.8169C19.9069 14.3994 20.3952 14.8716 20.9976 14.8716Z" fill="#1690E8"/>
</svg>
