<svg width="83" height="88" viewBox="0 0 83 88" fill="none" xmlns="http://www.w3.org/2000/svg">
<path d="M29.7671 88C24.7617 88 20.6896 84.1689 20.6896 79.4599C20.6896 78.0361 21.9165 76.8818 23.4299 76.8818C24.9433 76.8818 26.1703 78.0361 26.1703 79.4599C26.1703 81.3258 27.7838 82.8438 29.7671 82.8438C31.7503 82.8438 33.3639 81.3258 33.3639 79.4599V63.7122C33.3639 62.2884 34.5908 61.1341 36.1042 61.1341C37.6176 61.1341 38.8445 62.2884 38.8445 63.7122V79.4599C38.8447 84.1689 34.7726 88 29.7671 88Z" fill="#FF7B94"/>
<path d="M53.4033 88C48.398 88 44.3258 84.1689 44.3258 79.4599V63.7122C44.3258 62.2884 45.5528 61.1341 47.0662 61.1341C48.5796 61.1341 49.8065 62.2884 49.8065 63.7122V79.4599C49.8065 81.3258 51.42 82.8438 53.4033 82.8438C55.3866 82.8438 57.0001 81.3258 57.0001 79.4599C57.0001 78.0361 58.227 76.8818 59.7404 76.8818C61.2538 76.8818 62.4807 78.0361 62.4807 79.4599C62.4809 84.1689 58.4088 88 53.4033 88Z" fill="#FE4566"/>
<path d="M73.8132 56.7689C72.3498 56.7689 70.8673 56.4358 69.494 55.7336L57.0563 49.3689C55.7269 48.6886 55.2353 47.1231 55.9584 45.8722C56.6815 44.6213 58.3454 44.1586 59.675 44.8392L72.1123 51.2038C74.5105 52.4303 77.4293 50.7769 77.4293 48.2367C77.4293 46.9927 76.7088 45.8513 75.5487 45.2579C74.2191 44.5778 73.7271 43.0124 74.4498 41.7615C75.1727 40.5106 76.8363 40.0475 78.1663 40.7276C81.0924 42.2242 82.91 45.1015 82.91 48.2365C82.91 52.9048 78.8824 56.7686 73.8132 56.7689Z" fill="#FE4566"/>
<path d="M64.2218 74.6262C60.205 74.6262 56.5232 72.0962 55.4463 68.2758C55.4425 68.2619 55.4386 68.248 55.4348 68.2339L52.6268 57.553C52.2635 56.1708 53.1599 54.7731 54.6291 54.4313C56.0983 54.0891 57.5839 54.9326 57.9473 56.3148L60.749 66.972C61.2651 68.7638 63.2318 69.8325 65.1423 69.3557C66.07 69.1242 66.8467 68.5663 67.3291 67.7846C67.812 67.0029 67.9419 66.0918 67.696 65.219C67.3081 63.8428 68.1794 62.4312 69.6422 62.0661C71.1062 61.7011 72.6056 62.5209 72.9936 63.8971C73.6149 66.1012 73.2865 68.4016 72.0687 70.3742C70.3687 73.1284 67.3178 74.6262 64.2218 74.6262Z" fill="#FE4566"/>
<path d="M9.09647 56.7689C5.87475 56.7691 2.74984 55.1545 1.10436 52.3103C0.381639 51.0601 0 49.6518 0 48.2367C0 45.1015 1.81758 42.2244 4.74353 40.7278C6.07315 40.0479 7.73726 40.5106 8.45998 41.7615C9.18289 43.0124 8.69109 44.5778 7.36129 45.2579C5.63761 46.1397 4.95728 48.1831 5.91877 49.8463C6.86675 51.4853 9.0561 52.0944 10.7979 51.2036L23.4962 44.7052C24.8253 44.0247 26.4896 44.4871 27.2129 45.738C27.936 46.9887 27.4445 48.5543 26.1151 49.2346L13.4164 55.7332C12.0433 56.4357 10.5596 56.7689 9.09647 56.7689Z" fill="#FF7B94"/>
<path d="M18.9496 74.6262C15.8749 74.6262 12.8133 73.1453 11.1027 70.3742C9.88511 68.4018 9.55663 66.1017 10.1778 63.8974C10.5656 62.5211 12.0661 61.7017 13.529 62.0663C14.9918 62.4314 15.8632 63.8428 15.4754 65.2192C15.2293 66.0921 15.3596 67.0032 15.8421 67.7847C16.3247 68.5664 17.1013 69.1243 18.029 69.356C19.9398 69.8328 21.9064 68.7639 22.4225 66.9719L25.2242 56.3152C25.5876 54.933 27.0734 54.0899 28.5424 54.4316C30.0116 54.7735 30.9081 56.1712 30.5445 57.5534L27.7366 68.2342C27.7329 68.2483 27.7291 68.2622 27.7251 68.2761C26.6481 72.0959 22.966 74.626 18.9496 74.6262Z" fill="#FF7B94"/>
<path d="M66.4564 33.7752C66.4564 39.0397 62.746 43.3812 60.9757 45.155V47.8191C60.9757 57.9459 52.2176 66.1839 41.4554 66.1839C30.6968 66.1839 21.935 57.9494 21.935 47.8191V45.155C20.1629 43.3812 16.4543 39.0397 16.4543 33.7752C16.4543 28.5106 20.1629 24.1673 21.935 22.3953V18.5625C21.935 8.40469 30.6237 0.0773437 41.3019 0C41.3531 0 41.4042 0 41.4554 0.00171875C46.8447 0.0360937 51.5965 1.96109 55.2046 5.32984C58.926 8.80344 60.9757 13.4337 60.9757 18.3648V22.3953C62.746 24.1673 66.4564 28.5106 66.4564 33.7752Z" fill="#FFA1B2"/>
<path d="M66.4561 33.7752C66.4561 39.0397 62.7457 43.3813 60.9754 45.155V47.8191C60.9754 57.946 52.2173 66.1839 41.455 66.1839V0.0017395C46.8444 0.0361145 51.5961 1.96111 55.2042 5.32986C58.9256 8.80346 60.9754 13.4338 60.9754 18.3649V22.3953C62.7457 24.1674 66.4561 28.5106 66.4561 33.7752Z" fill="#FF7B94"/>
<path d="M30.156 36.3528C31.6694 36.3528 32.8963 35.1985 32.8963 33.7746C32.8963 32.3508 31.6694 31.1965 30.156 31.1965C28.6425 31.1965 27.4156 32.3508 27.4156 33.7746C27.4156 35.1985 28.6425 36.3528 30.156 36.3528Z" fill="#525E63"/>
<path d="M52.7548 36.3528C54.2683 36.3528 55.4952 35.1985 55.4952 33.7746C55.4952 32.3508 54.2683 31.1965 52.7548 31.1965C51.2414 31.1965 50.0145 32.3508 50.0145 33.7746C50.0145 35.1985 51.2414 36.3528 52.7548 36.3528Z" fill="#414C51"/>
</svg>
