<svg width="76" height="76" viewBox="0 0 76 76" fill="none" xmlns="http://www.w3.org/2000/svg">
<circle cx="38" cy="38" r="38" fill="#9ECBEC"/>
<path d="M32.0794 61.0001C29.5438 61.0001 27.481 59.041 27.481 56.6329C27.481 55.9049 28.1025 55.3146 28.8691 55.3146C29.6358 55.3146 30.2573 55.9049 30.2573 56.6329C30.2573 57.5871 31.0747 58.3633 32.0794 58.3633C33.0841 58.3633 33.9014 57.5871 33.9014 56.6329V48.5801C33.9014 47.8521 34.523 47.2618 35.2896 47.2618C36.0563 47.2618 36.6778 47.8521 36.6778 48.5801V56.6329C36.6779 59.041 34.615 61.0001 32.0794 61.0001Z" fill="#1690E8"/>
<path d="M44.0525 61.0001C41.5169 61.0001 39.4541 59.041 39.4541 56.6329V48.5801C39.4541 47.8521 40.0756 47.2618 40.8423 47.2618C41.6089 47.2618 42.2305 47.8521 42.2305 48.5801V56.6329C42.2305 57.5871 43.0478 58.3633 44.0525 58.3633C45.0572 58.3633 45.8745 57.5871 45.8745 56.6329C45.8745 55.9049 46.4961 55.3146 47.2627 55.3146C48.0294 55.3146 48.6509 55.9049 48.6509 56.6329C48.651 59.041 46.5882 61.0001 44.0525 61.0001Z" fill="#1690E8"/>
<path d="M54.3917 45.0297C53.6504 45.0297 52.8994 44.8593 52.2037 44.5002L45.9031 41.2455C45.2297 40.8976 44.9806 40.0971 45.3469 39.4575C45.7132 38.8178 46.5561 38.5812 47.2297 38.9292L53.5301 42.1838C54.745 42.811 56.2236 41.9655 56.2236 40.6666C56.2236 40.0304 55.8586 39.4467 55.2709 39.1433C54.5974 38.7956 54.3481 37.995 54.7142 37.3554C55.0804 36.7157 55.9232 36.4789 56.5969 36.8267C58.0792 37.592 58.9999 39.0634 58.9999 40.6665C58.9999 43.0537 56.9597 45.0295 54.3917 45.0297Z" fill="#1690E8"/>
<path d="M49.5333 54.1611C47.4985 54.1611 45.6334 52.8674 45.0878 50.9138C45.0859 50.9066 45.084 50.8995 45.082 50.8923L43.6596 45.4305C43.4755 44.7237 43.9296 44.009 44.6739 43.8342C45.4181 43.6592 46.1707 44.0905 46.3548 44.7974L47.7741 50.247C48.0355 51.1633 49.0318 51.7098 49.9996 51.466C50.4696 51.3476 50.863 51.0623 51.1074 50.6626C51.352 50.2628 51.4178 49.7969 51.2932 49.3506C51.0968 48.6469 51.5381 47.925 52.2791 47.7384C53.0208 47.5517 53.7803 47.9709 53.9769 48.6747C54.2916 49.8018 54.1252 50.9781 53.5083 51.9868C52.6472 53.3952 51.1017 54.1611 49.5333 54.1611Z" fill="#1690E8"/>
<path d="M21.608 45.0295C19.976 45.0296 18.393 44.204 17.5594 42.7496C17.1933 42.1102 17 41.3901 17 40.6665C17 39.0633 17.9207 37.592 19.403 36.8267C20.0765 36.479 20.9195 36.7156 21.2856 37.3553C21.6518 37.9949 21.4027 38.7954 20.729 39.1432C19.8559 39.5941 19.5112 40.639 19.9983 41.4896C20.4785 42.3277 21.5876 42.6392 22.4699 42.1836L28.9026 38.8606C29.5759 38.5126 30.419 38.749 30.7854 39.3887C31.1517 40.0283 30.9027 40.8289 30.2293 41.1768L23.7964 44.4999C23.1008 44.8591 22.3492 45.0295 21.608 45.0295Z" fill="#1690E8"/>
<path d="M26.5993 54.1612C25.0417 54.1612 23.4908 53.404 22.6243 51.9869C22.0074 50.9783 21.841 49.8021 22.1557 48.6749C22.3522 47.9711 23.1122 47.5521 23.8534 47.7385C24.5944 47.9252 25.0358 48.647 24.8393 49.3508C24.7147 49.7972 24.7807 50.2631 25.0251 50.6628C25.2696 51.0625 25.663 51.3478 26.1329 51.4662C27.1009 51.7101 28.0971 51.1635 28.3586 50.2471L29.7779 44.7976C29.9619 44.0908 30.7146 43.6597 31.4588 43.8344C32.203 44.0093 32.6571 44.724 32.473 45.4308L31.0505 50.8926C31.0487 50.8998 31.0468 50.9069 31.0447 50.914C30.4992 52.8673 28.6339 54.1611 26.5993 54.1612Z" fill="#1690E8"/>
<path d="M50.665 33.2714C50.665 35.9635 48.7854 38.1836 47.8887 39.0906V40.4529C47.8887 45.6315 43.452 49.8441 38.0001 49.8441C32.5501 49.8441 28.1116 45.6332 28.1116 40.4529V39.0906C27.2139 38.1836 25.3352 35.9635 25.3352 33.2714C25.3352 30.5793 27.2139 28.3583 28.1116 27.4522V25.4922C28.1116 20.2979 32.5131 16.0396 37.9224 16C37.9483 16 37.9742 16 38.0001 16.0009C40.7302 16.0185 43.1374 17.0028 44.9651 18.7255C46.8503 20.5018 47.8887 22.8695 47.8887 25.3911V27.4522C48.7854 28.3583 50.665 30.5793 50.665 33.2714Z" fill="#1690E8"/>
<path d="M50.6649 33.2716C50.6649 35.9636 48.7853 38.1838 47.8885 39.0908V40.4531C47.8885 45.6316 43.4519 49.8442 38 49.8442V16.001C40.7301 16.0186 43.1372 17.003 44.965 18.7256C46.8502 20.5019 47.8885 22.8697 47.8885 25.3913V27.4523C48.7853 28.3585 50.6649 30.5795 50.6649 33.2716Z" fill="#1690E8"/>
<path d="M32.2764 34.5895C33.043 34.5895 33.6646 33.9992 33.6646 33.2711C33.6646 32.543 33.043 31.9528 32.2764 31.9528C31.5097 31.9528 30.8882 32.543 30.8882 33.2711C30.8882 33.9992 31.5097 34.5895 32.2764 34.5895Z" fill="#1690E8"/>
<path d="M43.7244 34.5895C44.491 34.5895 45.1126 33.9992 45.1126 33.2711C45.1126 32.543 44.491 31.9528 43.7244 31.9528C42.9577 31.9528 42.3362 32.543 42.3362 33.2711C42.3362 33.9992 42.9577 34.5895 43.7244 34.5895Z" fill="#1690E8"/>
</svg>
